<svg width="279" height="357" viewBox="0 0 279 357" fill="none" xmlns="http://www.w3.org/2000/svg">
<path d="M18.9395 60.413L139.5 7.27321L260.061 60.413V166.587L139.5 219.727L18.9395 166.587V60.413Z" stroke="#E7788A" stroke-opacity="0.7" stroke-width="0.5"/>
<path d="M20 61L69 101L20 114L102 122L20 167L130.5 148L87.5 197C105.667 189.333 141.8 151.9 141 151.5C140.2 151.1 140.667 204 141 219.5L162 141L208.5 187.5C210.667 172 215.1 141 215.5 141C215.9 141 246 158.333 261 167L203 101L261 61L162 92L141 7.5C125.833 28 125.4 82.1 127 82.5C128.6 82.9 84.5 46.6667 77 35L108.5 101L20 61Z" stroke="#E376A0" stroke-opacity="0.7" stroke-width="0.4"/>
<circle cx="138.5" cy="7.5" r="6" fill="url(#paint0_linear_36_53)" stroke="#0C0C4F" stroke-width="3"/>
<circle cx="202.75" cy="99.75" r="3" fill="url(#paint1_linear_36_53)" stroke="#0C0C4F" stroke-width="1.5"/>
<circle cx="215.75" cy="143.75" r="3" fill="url(#paint2_linear_36_53)" stroke="#0C0C4F" stroke-width="1.5"/>
<circle cx="207.75" cy="185.75" r="3" fill="url(#paint3_linear_36_53)" stroke="#0C0C4F" stroke-width="1.5"/>
<circle cx="90.75" cy="193.75" r="3" fill="url(#paint4_linear_36_53)" stroke="#0C0C4F" stroke-width="1.5"/>
<circle cx="22.75" cy="113.75" r="3" fill="url(#paint5_linear_36_53)" stroke="#0C0C4F" stroke-width="1.5"/>
<circle cx="67.75" cy="99.75" r="3" fill="url(#paint6_linear_36_53)" stroke="#0C0C4F" stroke-width="1.5"/>
<circle cx="78.75" cy="37.75" r="3" fill="url(#paint7_linear_36_53)" stroke="#0C0C4F" stroke-width="1.5"/>
<circle cx="161.75" cy="88.75" r="3" fill="url(#paint8_linear_36_53)" stroke="#0C0C4F" stroke-width="1.5"/>
<circle cx="126.75" cy="80.75" r="3" fill="url(#paint9_linear_36_53)" stroke="#0C0C4F" stroke-width="1.5"/>
<circle cx="109.75" cy="99.75" r="3" fill="url(#paint10_linear_36_53)" stroke="#0C0C4F" stroke-width="1.5"/>
<circle cx="103.75" cy="121.75" r="3" fill="url(#paint11_linear_36_53)" stroke="#0C0C4F" stroke-width="1.5"/>
<circle cx="130.75" cy="147.75" r="3" fill="url(#paint12_linear_36_53)" stroke="#0C0C4F" stroke-width="1.5"/>
<circle cx="161.75" cy="139.75" r="3" fill="url(#paint13_linear_36_53)" stroke="#0C0C4F" stroke-width="1.5"/>
<circle cx="140.75" cy="153.75" r="3" fill="url(#paint14_linear_36_53)" stroke="#0C0C4F" stroke-width="1.5"/>
<circle cx="256.5" cy="61.5" r="6" fill="url(#paint15_linear_36_53)" stroke="#0C0C4F" stroke-width="3"/>
<circle cx="260.5" cy="165.5" r="6" fill="url(#paint16_linear_36_53)" stroke="#0C0C4F" stroke-width="3"/>
<circle cx="140.5" cy="219.5" r="6" fill="url(#paint17_linear_36_53)" stroke="#0C0C4F" stroke-width="3"/>
<circle cx="19.5" cy="165.5" r="6" fill="url(#paint18_linear_36_53)" stroke="#0C0C4F" stroke-width="3"/>
<circle cx="19.5" cy="61.5" r="6" fill="url(#paint19_linear_36_53)" stroke="#0C0C4F" stroke-width="3"/>
<g filter="url(#filter0_d_36_53)">
<circle cx="138" cy="114" r="39.9" fill="#FCF1F6" stroke="#E3769E" stroke-width="0.2"/>
<circle cx="149.5" cy="138.5" r="2.25" fill="url(#paint20_linear_36_53)" stroke="#0C0C4F" stroke-width="0.5"/>
<circle cx="147.5" cy="90.5" r="2.25" fill="url(#paint21_linear_36_53)" stroke="#0C0C4F" stroke-width="0.5"/>
<circle cx="127.5" cy="90.5" r="2.25" fill="url(#paint22_linear_36_53)" stroke="#0C0C4F" stroke-width="0.5"/>
<circle cx="127.5" cy="139.5" r="2.25" fill="url(#paint23_linear_36_53)" stroke="#0C0C4F" stroke-width="0.5"/>
<path d="M134.005 105.3V87.9L130.705 84H125.605L122.455 87.3V93M134.005 105.3H125.605L122.455 102.45V93M134.005 105.3V120.45M122.455 93H114.955L110.455 96.3V102.45L112.007 104.1M134.005 120.45V142.35C123.925 149.31 119.605 140.15 118.705 134.7M134.005 120.45L125.605 112.5H121.705M112.007 104.1L119.905 112.5H121.705M112.007 104.1L104.905 111.6C104.905 113.9 105.055 118.35 104.905 118.2C104.736 118.03 108.605 121.5 110.455 123.3M110.455 123.3L121.705 112.5M110.455 123.3C110.055 124.05 109.285 125.58 109.405 125.7C109.525 125.82 109.455 130.05 109.405 132.15C115.525 134.31 118.155 134.75 118.705 134.7M118.705 134.7V132.9H126.055V124.95H116.905" stroke="#E3769E" stroke-width="3.6"/>
<path d="M142.1 105.3V87.9L145.4 84H150.5L153.65 87.3V93M142.1 105.3H150.5L153.65 102.45V93M142.1 105.3V120.45M153.65 93H161.15L165.65 96.3V102.45L164.099 104.1M142.1 120.45V142.35C152.18 149.31 156.5 140.15 157.4 134.7M142.1 120.45L150.5 112.5H154.4M164.099 104.1L156.2 112.5H154.4M164.099 104.1L171.2 111.6C171.2 113.9 171.05 118.35 171.2 118.2C171.37 118.03 167.5 121.5 165.65 123.3M165.65 123.3L154.4 112.5M165.65 123.3C166.05 124.05 166.82 125.58 166.7 125.7C166.58 125.82 166.65 130.05 166.7 132.15C160.58 134.31 157.95 134.75 157.4 134.7M157.4 134.7V132.9H150.05V124.95H159.2" stroke="#E3769E" stroke-width="3.6"/>
<circle cx="137.9" cy="78.6" r="2.4" fill="url(#paint24_linear_36_53)"/>
<circle cx="137.9" cy="150" r="2.4" fill="url(#paint25_linear_36_53)"/>
</g>
<path d="M120.56 310H111.332L125.392 269.273H136.489L150.528 310H141.301L131.099 278.58H130.781L120.56 310ZM119.983 293.991H141.778V300.713H119.983V293.991ZM163.844 269.273V310H155.233V269.273H163.844Z" fill="#0C0C4F"/>
<path d="M60.1548 326.638C60.098 326.065 59.8542 325.62 59.4233 325.303C58.9924 324.985 58.4077 324.827 57.669 324.827C57.1671 324.827 56.7434 324.898 56.3977 325.04C56.0521 325.177 55.7869 325.369 55.6023 325.615C55.4223 325.861 55.3324 326.141 55.3324 326.453C55.3229 326.714 55.3774 326.941 55.4957 327.135C55.6188 327.329 55.7869 327.497 56 327.639C56.2131 327.777 56.4593 327.897 56.7386 328.001C57.018 328.101 57.3163 328.186 57.6335 328.257L58.9403 328.57C59.5748 328.712 60.1572 328.901 60.6875 329.138C61.2178 329.375 61.6771 329.666 62.0653 330.011C62.4536 330.357 62.7543 330.764 62.9673 331.233C63.1851 331.702 63.2964 332.239 63.3011 332.845C63.2964 333.735 63.0691 334.507 62.6193 335.161C62.1742 335.809 61.5303 336.313 60.6875 336.673C59.8494 337.028 58.8385 337.206 57.6548 337.206C56.4806 337.206 55.4579 337.026 54.5866 336.666C53.7202 336.306 53.0431 335.774 52.5554 335.068C52.0724 334.358 51.8191 333.48 51.7955 332.433H54.7713C54.8045 332.921 54.9441 333.328 55.1903 333.655C55.4413 333.977 55.7751 334.221 56.1918 334.386C56.6132 334.547 57.089 334.628 57.6193 334.628C58.1402 334.628 58.5923 334.552 58.9759 334.401C59.3641 334.249 59.6648 334.038 59.8778 333.768C60.0909 333.499 60.1974 333.188 60.1974 332.838C60.1974 332.511 60.1004 332.237 59.9062 332.014C59.7169 331.792 59.4375 331.602 59.0682 331.446C58.7036 331.29 58.2562 331.148 57.7259 331.02L56.142 330.622C54.9157 330.324 53.9474 329.857 53.2372 329.223C52.527 328.589 52.1742 327.734 52.179 326.659C52.1742 325.778 52.4086 325.009 52.8821 324.351C53.3603 323.693 54.0161 323.179 54.8494 322.81C55.6828 322.44 56.6297 322.256 57.6903 322.256C58.7699 322.256 59.7121 322.44 60.517 322.81C61.3267 323.179 61.9564 323.693 62.4062 324.351C62.8561 325.009 63.0881 325.771 63.1023 326.638H60.1548ZM74.8157 324.99V322.455H86.7617V324.99H82.3086V337H79.2688V324.99H74.8157ZM99.4588 337H96.1634L101.185 322.455H105.148L110.162 337H106.866L103.223 325.778H103.109L99.4588 337ZM99.2528 331.283H107.037V333.683H99.2528V331.283ZM121.913 337V322.455H127.651C128.75 322.455 129.687 322.651 130.464 323.044C131.245 323.432 131.839 323.984 132.246 324.699C132.658 325.409 132.864 326.245 132.864 327.206C132.864 328.172 132.656 329.003 132.239 329.699C131.823 330.39 131.219 330.92 130.428 331.29C129.642 331.659 128.691 331.844 127.573 331.844H123.731V329.372H127.076C127.663 329.372 128.151 329.292 128.539 329.131C128.927 328.97 129.216 328.728 129.406 328.406C129.6 328.084 129.697 327.684 129.697 327.206C129.697 326.723 129.6 326.316 129.406 325.984C129.216 325.653 128.925 325.402 128.532 325.232C128.144 325.056 127.654 324.969 127.062 324.969H124.988V337H121.913ZM129.768 330.381L133.383 337H129.988L126.451 330.381H129.768ZM145.038 337V322.455H148.113V328.868H148.305L153.539 322.455H157.225L151.827 328.967L157.289 337H153.61L149.626 331.02L148.113 332.866V337H145.038ZM168.827 337V322.455H171.902V328.456H178.145V322.455H181.213V337H178.145V330.991H171.902V337H168.827ZM202.733 322.455H205.808V331.901C205.808 332.961 205.555 333.889 205.048 334.685C204.546 335.48 203.843 336.1 202.939 336.545C202.035 336.986 200.981 337.206 199.778 337.206C198.571 337.206 197.515 336.986 196.611 336.545C195.706 336.1 195.003 335.48 194.501 334.685C194 333.889 193.749 332.961 193.749 331.901V322.455H196.824V331.638C196.824 332.192 196.945 332.684 197.186 333.115C197.432 333.546 197.778 333.884 198.223 334.131C198.668 334.377 199.187 334.5 199.778 334.5C200.375 334.5 200.893 334.377 201.334 334.131C201.779 333.884 202.122 333.546 202.364 333.115C202.61 332.684 202.733 332.192 202.733 331.638V322.455ZM218.338 337V322.455H224.162C225.232 322.455 226.125 322.613 226.84 322.93C227.555 323.248 228.092 323.688 228.452 324.251C228.812 324.81 228.992 325.454 228.992 326.183C228.992 326.751 228.878 327.251 228.651 327.682C228.424 328.108 228.111 328.458 227.713 328.733C227.32 329.003 226.871 329.195 226.364 329.308V329.45C226.918 329.474 227.436 329.63 227.919 329.919C228.407 330.208 228.802 330.613 229.105 331.134C229.408 331.65 229.56 332.265 229.56 332.98C229.56 333.752 229.368 334.441 228.985 335.047C228.606 335.648 228.045 336.124 227.301 336.474C226.558 336.825 225.642 337 224.553 337H218.338ZM221.414 334.486H223.921C224.778 334.486 225.403 334.322 225.796 333.996C226.189 333.664 226.385 333.224 226.385 332.675C226.385 332.272 226.288 331.917 226.094 331.609C225.9 331.302 225.623 331.06 225.263 330.885C224.908 330.71 224.484 330.622 223.992 330.622H221.414V334.486ZM221.414 328.541H223.694C224.115 328.541 224.489 328.468 224.816 328.321C225.147 328.17 225.408 327.956 225.597 327.682C225.791 327.407 225.888 327.078 225.888 326.695C225.888 326.169 225.701 325.745 225.327 325.423C224.958 325.101 224.432 324.94 223.75 324.94H221.414V328.541Z" fill="#0C0C4F"/>
<g filter="url(#filter1_f_36_53)">
<path d="M94 342.5C133.869 342.5 137.369 338.5 139.935 337C142.869 339 157.869 342.5 185.869 342.5C157.869 343.5 142.369 346 139.935 348C136.49 346 133.869 343.5 94 342.5Z" fill="#E376A0"/>
<path d="M94 342.5C133.869 342.5 137.369 338.5 139.935 337C142.869 339 157.869 342.5 185.869 342.5C157.869 343.5 142.369 346 139.935 348C136.49 346 133.869 343.5 94 342.5Z" stroke="#E376A0" stroke-width="0.4"/>
</g>
<defs>
<filter id="filter0_d_36_53" x="94" y="74" width="88" height="88" filterUnits="userSpaceOnUse" color-interpolation-filters="sRGB">
<feFlood flood-opacity="0" result="BackgroundImageFix"/>
<feColorMatrix in="SourceAlpha" type="matrix" values="0 0 0 0 0 0 0 0 0 0 0 0 0 0 0 0 0 0 127 0" result="hardAlpha"/>
<feOffset dy="4"/>
<feGaussianBlur stdDeviation="2"/>
<feComposite in2="hardAlpha" operator="out"/>
<feColorMatrix type="matrix" values="0 0 0 0 0.890196 0 0 0 0 0.462745 0 0 0 0 0.627451 0 0 0 0.2 0"/>
<feBlend mode="normal" in2="BackgroundImageFix" result="effect1_dropShadow_36_53"/>
<feBlend mode="normal" in="SourceGraphic" in2="effect1_dropShadow_36_53" result="shape"/>
</filter>
<filter id="filter1_f_36_53" x="85.295" y="328.064" width="109.281" height="28.8791" filterUnits="userSpaceOnUse" color-interpolation-filters="sRGB">
<feFlood flood-opacity="0" result="BackgroundImageFix"/>
<feBlend mode="normal" in="SourceGraphic" in2="BackgroundImageFix" result="shape"/>
<feGaussianBlur stdDeviation="4.35" result="effect1_foregroundBlur_36_53"/>
</filter>
<linearGradient id="paint0_linear_36_53" x1="143.75" y1="3.3" x2="132.5" y2="13.05" gradientUnits="userSpaceOnUse">
<stop stop-color="#E376A0"/>
<stop offset="0.794471" stop-color="#EA797A"/>
</linearGradient>
<linearGradient id="paint1_linear_36_53" x1="205.375" y1="97.65" x2="199.75" y2="102.525" gradientUnits="userSpaceOnUse">
<stop stop-color="#E376A0"/>
<stop offset="0.794471" stop-color="#EA797A"/>
</linearGradient>
<linearGradient id="paint2_linear_36_53" x1="218.375" y1="141.65" x2="212.75" y2="146.525" gradientUnits="userSpaceOnUse">
<stop stop-color="#E376A0"/>
<stop offset="0.794471" stop-color="#EA797A"/>
</linearGradient>
<linearGradient id="paint3_linear_36_53" x1="210.375" y1="183.65" x2="204.75" y2="188.525" gradientUnits="userSpaceOnUse">
<stop stop-color="#E376A0"/>
<stop offset="0.794471" stop-color="#EA797A"/>
</linearGradient>
<linearGradient id="paint4_linear_36_53" x1="93.375" y1="191.65" x2="87.75" y2="196.525" gradientUnits="userSpaceOnUse">
<stop stop-color="#E376A0"/>
<stop offset="0.794471" stop-color="#EA797A"/>
</linearGradient>
<linearGradient id="paint5_linear_36_53" x1="25.375" y1="111.65" x2="19.75" y2="116.525" gradientUnits="userSpaceOnUse">
<stop stop-color="#E376A0"/>
<stop offset="0.794471" stop-color="#EA797A"/>
</linearGradient>
<linearGradient id="paint6_linear_36_53" x1="70.375" y1="97.65" x2="64.75" y2="102.525" gradientUnits="userSpaceOnUse">
<stop stop-color="#E376A0"/>
<stop offset="0.794471" stop-color="#EA797A"/>
</linearGradient>
<linearGradient id="paint7_linear_36_53" x1="81.375" y1="35.65" x2="75.75" y2="40.525" gradientUnits="userSpaceOnUse">
<stop stop-color="#E376A0"/>
<stop offset="0.794471" stop-color="#EA797A"/>
</linearGradient>
<linearGradient id="paint8_linear_36_53" x1="164.375" y1="86.65" x2="158.75" y2="91.525" gradientUnits="userSpaceOnUse">
<stop stop-color="#E376A0"/>
<stop offset="0.794471" stop-color="#EA797A"/>
</linearGradient>
<linearGradient id="paint9_linear_36_53" x1="129.375" y1="78.65" x2="123.75" y2="83.525" gradientUnits="userSpaceOnUse">
<stop stop-color="#E376A0"/>
<stop offset="0.794471" stop-color="#EA797A"/>
</linearGradient>
<linearGradient id="paint10_linear_36_53" x1="112.375" y1="97.65" x2="106.75" y2="102.525" gradientUnits="userSpaceOnUse">
<stop stop-color="#E376A0"/>
<stop offset="0.794471" stop-color="#EA797A"/>
</linearGradient>
<linearGradient id="paint11_linear_36_53" x1="106.375" y1="119.65" x2="100.75" y2="124.525" gradientUnits="userSpaceOnUse">
<stop stop-color="#E376A0"/>
<stop offset="0.794471" stop-color="#EA797A"/>
</linearGradient>
<linearGradient id="paint12_linear_36_53" x1="133.375" y1="145.65" x2="127.75" y2="150.525" gradientUnits="userSpaceOnUse">
<stop stop-color="#E376A0"/>
<stop offset="0.794471" stop-color="#EA797A"/>
</linearGradient>
<linearGradient id="paint13_linear_36_53" x1="164.375" y1="137.65" x2="158.75" y2="142.525" gradientUnits="userSpaceOnUse">
<stop stop-color="#E376A0"/>
<stop offset="0.794471" stop-color="#EA797A"/>
</linearGradient>
<linearGradient id="paint14_linear_36_53" x1="143.375" y1="151.65" x2="137.75" y2="156.525" gradientUnits="userSpaceOnUse">
<stop stop-color="#E376A0"/>
<stop offset="0.794471" stop-color="#EA797A"/>
</linearGradient>
<linearGradient id="paint15_linear_36_53" x1="261.75" y1="57.3" x2="250.5" y2="67.05" gradientUnits="userSpaceOnUse">
<stop stop-color="#E376A0"/>
<stop offset="0.794471" stop-color="#EA797A"/>
</linearGradient>
<linearGradient id="paint16_linear_36_53" x1="265.75" y1="161.3" x2="254.5" y2="171.05" gradientUnits="userSpaceOnUse">
<stop stop-color="#E376A0"/>
<stop offset="0.794471" stop-color="#EA797A"/>
</linearGradient>
<linearGradient id="paint17_linear_36_53" x1="145.75" y1="215.3" x2="134.5" y2="225.05" gradientUnits="userSpaceOnUse">
<stop stop-color="#E376A0"/>
<stop offset="0.794471" stop-color="#EA797A"/>
</linearGradient>
<linearGradient id="paint18_linear_36_53" x1="24.75" y1="161.3" x2="13.5" y2="171.05" gradientUnits="userSpaceOnUse">
<stop stop-color="#E376A0"/>
<stop offset="0.794471" stop-color="#EA797A"/>
</linearGradient>
<linearGradient id="paint19_linear_36_53" x1="24.75" y1="57.3" x2="13.5" y2="67.05" gradientUnits="userSpaceOnUse">
<stop stop-color="#E376A0"/>
<stop offset="0.794471" stop-color="#EA797A"/>
</linearGradient>
<linearGradient id="paint20_linear_36_53" x1="151.25" y1="137.1" x2="147.5" y2="140.35" gradientUnits="userSpaceOnUse">
<stop stop-color="#E376A0"/>
<stop offset="0.794471" stop-color="#EA797A"/>
</linearGradient>
<linearGradient id="paint21_linear_36_53" x1="149.25" y1="89.1" x2="145.5" y2="92.35" gradientUnits="userSpaceOnUse">
<stop stop-color="#E376A0"/>
<stop offset="0.794471" stop-color="#EA797A"/>
</linearGradient>
<linearGradient id="paint22_linear_36_53" x1="129.25" y1="89.1" x2="125.5" y2="92.35" gradientUnits="userSpaceOnUse">
<stop stop-color="#E376A0"/>
<stop offset="0.794471" stop-color="#EA797A"/>
</linearGradient>
<linearGradient id="paint23_linear_36_53" x1="129.25" y1="138.1" x2="125.5" y2="141.35" gradientUnits="userSpaceOnUse">
<stop stop-color="#E376A0"/>
<stop offset="0.794471" stop-color="#EA797A"/>
</linearGradient>
<linearGradient id="paint24_linear_36_53" x1="139.58" y1="77.256" x2="135.98" y2="80.376" gradientUnits="userSpaceOnUse">
<stop stop-color="#E376A0"/>
<stop offset="0.794471" stop-color="#EA797A"/>
</linearGradient>
<linearGradient id="paint25_linear_36_53" x1="139.58" y1="148.656" x2="135.98" y2="151.776" gradientUnits="userSpaceOnUse">
<stop stop-color="#E376A0"/>
<stop offset="0.794471" stop-color="#EA797A"/>
</linearGradient>
</defs>
</svg>
