<svg width="158" height="158" viewBox="0 0 158 158" fill="none" xmlns="http://www.w3.org/2000/svg">
<g opacity="0.75" filter="url(#filter0_d_71_144)">
<circle cx="79" cy="75" r="74.9" fill="#FCF1F6" stroke="#E3769E" stroke-width="0.2"/>
<circle cx="100.562" cy="120.938" r="4.4375" fill="url(#paint0_linear_71_144)" stroke="#0C0C4F" stroke-width="0.5"/>
<circle cx="96.8125" cy="30.9375" r="4.4375" fill="url(#paint1_linear_71_144)" stroke="#0C0C4F" stroke-width="0.5"/>
<circle cx="59.3125" cy="30.9375" r="4.4375" fill="url(#paint2_linear_71_144)" stroke="#0C0C4F" stroke-width="0.5"/>
<circle cx="59.3125" cy="122.812" r="4.4375" fill="url(#paint3_linear_71_144)" stroke="#0C0C4F" stroke-width="0.5"/>
<path d="M71.5101 58.6875V26.0625L65.3226 18.75H55.7601L49.8539 24.9375V35.625M71.5101 58.6875H55.7601L49.8539 53.3437V35.625M71.5101 58.6875V87.0937M49.8539 35.625H35.7914L27.3539 41.8125V53.3437L30.2629 56.4375M71.5101 87.0937V128.156C52.6101 141.206 44.5101 124.031 42.8226 113.812M71.5101 87.0937L55.7601 72.1875H48.4476M30.2629 56.4375L45.0726 72.1875H48.4476M30.2629 56.4375L16.9476 70.5C16.9476 74.8125 17.2289 83.1562 16.9476 82.875C16.6294 82.5568 23.8851 89.0625 27.3539 92.4375M27.3539 92.4375L48.4476 72.1875M27.3539 92.4375C26.6039 93.8437 25.1601 96.7125 25.3851 96.9375C25.6101 97.1625 25.4789 105.094 25.3851 109.031C36.8601 113.081 41.7914 113.906 42.8226 113.812M42.8226 113.812V110.437H56.6039V95.5312H39.4476" stroke="#E3769E" stroke-width="3.6"/>
<path d="M86.6876 58.6875V26.0625L92.8751 18.75H102.438L108.344 24.9375V35.625M86.6876 58.6875H102.438L108.344 53.3437V35.625M86.6876 58.6875V87.0937M108.344 35.625H122.406L130.844 41.8125V53.3437L127.935 56.4375M86.6876 87.0937V128.156C105.588 141.206 113.688 124.031 115.375 113.812M86.6876 87.0937L102.438 72.1875H109.75M127.935 56.4375L113.125 72.1875H109.75M127.935 56.4375L141.25 70.5C141.25 74.8125 140.969 83.1562 141.25 82.875C141.568 82.5568 134.313 89.0625 130.844 92.4375M130.844 92.4375L109.75 72.1875M130.844 92.4375C131.594 93.8437 133.038 96.7125 132.813 96.9375C132.588 97.1625 132.719 105.094 132.813 109.031C121.338 113.081 116.406 113.906 115.375 113.812M115.375 113.812V110.437H101.594V95.5312H118.75" stroke="#E3769E" stroke-width="3.6"/>
<circle cx="78.8125" cy="8.62502" r="4.5" fill="url(#paint4_linear_71_144)"/>
<circle cx="78.8125" cy="142.5" r="4.5" fill="url(#paint5_linear_71_144)"/>
</g>
<defs>
<filter id="filter0_d_71_144" x="0" y="0" width="158" height="158" filterUnits="userSpaceOnUse" color-interpolation-filters="sRGB">
<feFlood flood-opacity="0" result="BackgroundImageFix"/>
<feColorMatrix in="SourceAlpha" type="matrix" values="0 0 0 0 0 0 0 0 0 0 0 0 0 0 0 0 0 0 127 0" result="hardAlpha"/>
<feOffset dy="4"/>
<feGaussianBlur stdDeviation="2"/>
<feComposite in2="hardAlpha" operator="out"/>
<feColorMatrix type="matrix" values="0 0 0 0 0.890196 0 0 0 0 0.462745 0 0 0 0 0.627451 0 0 0 0.2 0"/>
<feBlend mode="normal" in2="BackgroundImageFix" result="effect1_dropShadow_71_144"/>
<feBlend mode="normal" in="SourceGraphic" in2="effect1_dropShadow_71_144" result="shape"/>
</filter>
<linearGradient id="paint0_linear_71_144" x1="103.844" y1="118.313" x2="96.8125" y2="124.406" gradientUnits="userSpaceOnUse">
<stop stop-color="#E376A0"/>
<stop offset="0.794471" stop-color="#EA797A"/>
</linearGradient>
<linearGradient id="paint1_linear_71_144" x1="100.094" y1="28.3125" x2="93.0625" y2="34.4062" gradientUnits="userSpaceOnUse">
<stop stop-color="#E376A0"/>
<stop offset="0.794471" stop-color="#EA797A"/>
</linearGradient>
<linearGradient id="paint2_linear_71_144" x1="62.5938" y1="28.3125" x2="55.5625" y2="34.4062" gradientUnits="userSpaceOnUse">
<stop stop-color="#E376A0"/>
<stop offset="0.794471" stop-color="#EA797A"/>
</linearGradient>
<linearGradient id="paint3_linear_71_144" x1="62.5938" y1="120.188" x2="55.5625" y2="126.281" gradientUnits="userSpaceOnUse">
<stop stop-color="#E376A0"/>
<stop offset="0.794471" stop-color="#EA797A"/>
</linearGradient>
<linearGradient id="paint4_linear_71_144" x1="81.9625" y1="6.10502" x2="75.2125" y2="11.955" gradientUnits="userSpaceOnUse">
<stop stop-color="#E376A0"/>
<stop offset="0.794471" stop-color="#EA797A"/>
</linearGradient>
<linearGradient id="paint5_linear_71_144" x1="81.9625" y1="139.98" x2="75.2125" y2="145.83" gradientUnits="userSpaceOnUse">
<stop stop-color="#E376A0"/>
<stop offset="0.794471" stop-color="#EA797A"/>
</linearGradient>
</defs>
</svg>
