<svg width="279" height="227" viewBox="0 0 279 227" fill="none" xmlns="http://www.w3.org/2000/svg">
<path d="M18.9395 60.413L139.5 7.27321L260.061 60.413V166.587L139.5 219.727L18.9395 166.587V60.413Z" stroke="#E7788A" stroke-opacity="0.7" stroke-width="0.5"/>
<path d="M20 61L69 101L20 114L102 122L20 167L130.5 148L87.5 197C105.667 189.333 141.8 151.9 141 151.5C140.2 151.1 140.667 204 141 219.5L162 141L208.5 187.5C210.667 172 215.1 141 215.5 141C215.9 141 246 158.333 261 167L203 101L261 61L162 92L141 7.5C125.833 28 125.4 82.1 127 82.5C128.6 82.9 84.5 46.6667 77 35L108.5 101L20 61Z" stroke="#E376A0" stroke-opacity="0.7" stroke-width="0.4"/>
<circle cx="138.5" cy="7.5" r="6" fill="url(#paint0_linear_21_437)" stroke="#0C0C4F" stroke-width="3"/>
<circle cx="202.75" cy="99.75" r="3" fill="url(#paint1_linear_21_437)" stroke="#0C0C4F" stroke-width="1.5"/>
<circle cx="215.75" cy="143.75" r="3" fill="url(#paint2_linear_21_437)" stroke="#0C0C4F" stroke-width="1.5"/>
<circle cx="207.75" cy="185.75" r="3" fill="url(#paint3_linear_21_437)" stroke="#0C0C4F" stroke-width="1.5"/>
<circle cx="90.75" cy="193.75" r="3" fill="url(#paint4_linear_21_437)" stroke="#0C0C4F" stroke-width="1.5"/>
<circle cx="22.75" cy="113.75" r="3" fill="url(#paint5_linear_21_437)" stroke="#0C0C4F" stroke-width="1.5"/>
<circle cx="67.75" cy="99.75" r="3" fill="url(#paint6_linear_21_437)" stroke="#0C0C4F" stroke-width="1.5"/>
<circle cx="78.75" cy="37.75" r="3" fill="url(#paint7_linear_21_437)" stroke="#0C0C4F" stroke-width="1.5"/>
<circle cx="161.75" cy="88.75" r="3" fill="url(#paint8_linear_21_437)" stroke="#0C0C4F" stroke-width="1.5"/>
<circle cx="126.75" cy="80.75" r="3" fill="url(#paint9_linear_21_437)" stroke="#0C0C4F" stroke-width="1.5"/>
<circle cx="109.75" cy="99.75" r="3" fill="url(#paint10_linear_21_437)" stroke="#0C0C4F" stroke-width="1.5"/>
<circle cx="103.75" cy="121.75" r="3" fill="url(#paint11_linear_21_437)" stroke="#0C0C4F" stroke-width="1.5"/>
<circle cx="130.75" cy="147.75" r="3" fill="url(#paint12_linear_21_437)" stroke="#0C0C4F" stroke-width="1.5"/>
<circle cx="161.75" cy="139.75" r="3" fill="url(#paint13_linear_21_437)" stroke="#0C0C4F" stroke-width="1.5"/>
<circle cx="140.75" cy="153.75" r="3" fill="url(#paint14_linear_21_437)" stroke="#0C0C4F" stroke-width="1.5"/>
<circle cx="256.5" cy="61.5" r="6" fill="url(#paint15_linear_21_437)" stroke="#0C0C4F" stroke-width="3"/>
<circle cx="260.5" cy="165.5" r="6" fill="url(#paint16_linear_21_437)" stroke="#0C0C4F" stroke-width="3"/>
<circle cx="140.5" cy="219.5" r="6" fill="url(#paint17_linear_21_437)" stroke="#0C0C4F" stroke-width="3"/>
<circle cx="19.5" cy="165.5" r="6" fill="url(#paint18_linear_21_437)" stroke="#0C0C4F" stroke-width="3"/>
<circle cx="19.5" cy="61.5" r="6" fill="url(#paint19_linear_21_437)" stroke="#0C0C4F" stroke-width="3"/>
<defs>
<linearGradient id="paint0_linear_21_437" x1="143.75" y1="3.3" x2="132.5" y2="13.05" gradientUnits="userSpaceOnUse">
<stop stop-color="#E376A0"/>
<stop offset="0.794471" stop-color="#EA797A"/>
</linearGradient>
<linearGradient id="paint1_linear_21_437" x1="205.375" y1="97.65" x2="199.75" y2="102.525" gradientUnits="userSpaceOnUse">
<stop stop-color="#E376A0"/>
<stop offset="0.794471" stop-color="#EA797A"/>
</linearGradient>
<linearGradient id="paint2_linear_21_437" x1="218.375" y1="141.65" x2="212.75" y2="146.525" gradientUnits="userSpaceOnUse">
<stop stop-color="#E376A0"/>
<stop offset="0.794471" stop-color="#EA797A"/>
</linearGradient>
<linearGradient id="paint3_linear_21_437" x1="210.375" y1="183.65" x2="204.75" y2="188.525" gradientUnits="userSpaceOnUse">
<stop stop-color="#E376A0"/>
<stop offset="0.794471" stop-color="#EA797A"/>
</linearGradient>
<linearGradient id="paint4_linear_21_437" x1="93.375" y1="191.65" x2="87.75" y2="196.525" gradientUnits="userSpaceOnUse">
<stop stop-color="#E376A0"/>
<stop offset="0.794471" stop-color="#EA797A"/>
</linearGradient>
<linearGradient id="paint5_linear_21_437" x1="25.375" y1="111.65" x2="19.75" y2="116.525" gradientUnits="userSpaceOnUse">
<stop stop-color="#E376A0"/>
<stop offset="0.794471" stop-color="#EA797A"/>
</linearGradient>
<linearGradient id="paint6_linear_21_437" x1="70.375" y1="97.65" x2="64.75" y2="102.525" gradientUnits="userSpaceOnUse">
<stop stop-color="#E376A0"/>
<stop offset="0.794471" stop-color="#EA797A"/>
</linearGradient>
<linearGradient id="paint7_linear_21_437" x1="81.375" y1="35.65" x2="75.75" y2="40.525" gradientUnits="userSpaceOnUse">
<stop stop-color="#E376A0"/>
<stop offset="0.794471" stop-color="#EA797A"/>
</linearGradient>
<linearGradient id="paint8_linear_21_437" x1="164.375" y1="86.65" x2="158.75" y2="91.525" gradientUnits="userSpaceOnUse">
<stop stop-color="#E376A0"/>
<stop offset="0.794471" stop-color="#EA797A"/>
</linearGradient>
<linearGradient id="paint9_linear_21_437" x1="129.375" y1="78.65" x2="123.75" y2="83.525" gradientUnits="userSpaceOnUse">
<stop stop-color="#E376A0"/>
<stop offset="0.794471" stop-color="#EA797A"/>
</linearGradient>
<linearGradient id="paint10_linear_21_437" x1="112.375" y1="97.65" x2="106.75" y2="102.525" gradientUnits="userSpaceOnUse">
<stop stop-color="#E376A0"/>
<stop offset="0.794471" stop-color="#EA797A"/>
</linearGradient>
<linearGradient id="paint11_linear_21_437" x1="106.375" y1="119.65" x2="100.75" y2="124.525" gradientUnits="userSpaceOnUse">
<stop stop-color="#E376A0"/>
<stop offset="0.794471" stop-color="#EA797A"/>
</linearGradient>
<linearGradient id="paint12_linear_21_437" x1="133.375" y1="145.65" x2="127.75" y2="150.525" gradientUnits="userSpaceOnUse">
<stop stop-color="#E376A0"/>
<stop offset="0.794471" stop-color="#EA797A"/>
</linearGradient>
<linearGradient id="paint13_linear_21_437" x1="164.375" y1="137.65" x2="158.75" y2="142.525" gradientUnits="userSpaceOnUse">
<stop stop-color="#E376A0"/>
<stop offset="0.794471" stop-color="#EA797A"/>
</linearGradient>
<linearGradient id="paint14_linear_21_437" x1="143.375" y1="151.65" x2="137.75" y2="156.525" gradientUnits="userSpaceOnUse">
<stop stop-color="#E376A0"/>
<stop offset="0.794471" stop-color="#EA797A"/>
</linearGradient>
<linearGradient id="paint15_linear_21_437" x1="261.75" y1="57.3" x2="250.5" y2="67.05" gradientUnits="userSpaceOnUse">
<stop stop-color="#E376A0"/>
<stop offset="0.794471" stop-color="#EA797A"/>
</linearGradient>
<linearGradient id="paint16_linear_21_437" x1="265.75" y1="161.3" x2="254.5" y2="171.05" gradientUnits="userSpaceOnUse">
<stop stop-color="#E376A0"/>
<stop offset="0.794471" stop-color="#EA797A"/>
</linearGradient>
<linearGradient id="paint17_linear_21_437" x1="145.75" y1="215.3" x2="134.5" y2="225.05" gradientUnits="userSpaceOnUse">
<stop stop-color="#E376A0"/>
<stop offset="0.794471" stop-color="#EA797A"/>
</linearGradient>
<linearGradient id="paint18_linear_21_437" x1="24.75" y1="161.3" x2="13.5" y2="171.05" gradientUnits="userSpaceOnUse">
<stop stop-color="#E376A0"/>
<stop offset="0.794471" stop-color="#EA797A"/>
</linearGradient>
<linearGradient id="paint19_linear_21_437" x1="24.75" y1="57.3" x2="13.5" y2="67.05" gradientUnits="userSpaceOnUse">
<stop stop-color="#E376A0"/>
<stop offset="0.794471" stop-color="#EA797A"/>
</linearGradient>
</defs>
</svg>
